<svg xmlns="http://www.w3.org/2000/svg" width="600" height="400" viewBox="0 0 600 400">
  <style>
    .shield { fill: #4f46e5; }
    .shield-inner { fill: #ffffff; }
    .lock { fill: #10b981; }
    .phishing { fill: #ef4444; }
    .check { fill: #10b981; }
    .line { stroke: #e5e7eb; stroke-width: 2; }
  </style>
  
  <!-- Background Shield -->
  <path class="shield" d="M300,50 L450,100 C450,250 400,350 300,380 C200,350 150,250 150,100 L300,50 Z" />
  <path class="shield-inner" d="M300,80 L420,120 C420,250 380,330 300,355 C220,330 180,250 180,120 L300,80 Z" />
  
  <!-- Lock Icon -->
  <rect class="lock" x="260" y="170" width="80" height="60" rx="5" />
  <rect class="lock" x="275" y="140" width="50" height="40" rx="20" />
  <circle class="shield-inner" cx="300" cy="195" r="10" />
  <rect class="shield-inner" x="295" y="195" width="10" height="15" />
  
  <!-- Phishing Hook -->
  <path class="phishing" d="M150,200 C120,180 100,220 120,240 C140,260 160,240 150,220" fill="none" stroke="#ef4444" stroke-width="5" />
  <path class="phishing" d="M150,220 L150,280" fill="none" stroke="#ef4444" stroke-width="5" />
  
  <!-- X Mark -->
  <line class="phishing" x1="120" y1="200" x2="180" y2="260" stroke-width="8" />
  <line class="phishing" x1="180" y1="200" x2="120" y2="260" stroke-width="8" />
  
  <!-- Check Mark -->
  <path class="check" d="M420,200 L440,220 L480,180" fill="none" stroke="#10b981" stroke-width="8" stroke-linecap="round" stroke-linejoin="round" />
  
  <!-- Connection Lines -->
  <line class="line" x1="180" y1="230" x2="260" y2="200" />
  <line class="line" x1="340" y1="200" x2="420" y2="200" />
</svg>
